<?xml version="1.0" encoding="UTF-8" standalone="no"?>
<!DOCTYPE svg PUBLIC "-//W3C//DTD SVG 1.1//EN"
 "http://www.w3.org/Graphics/SVG/1.1/DTD/svg11.dtd">
<!-- Generated by graphviz version 2.40.1 (20161225.0304)
 -->
<!-- Title: dependencies Pages: 1 -->
<svg width="594pt" height="211pt"
 viewBox="0.00 0.00 594.00 211.00" xmlns="http://www.w3.org/2000/svg" xmlns:xlink="http://www.w3.org/1999/xlink">
<g id="graph0" class="graph" transform="scale(1 1) rotate(0) translate(4 207)">
<title>dependencies</title>
<polygon fill="#ffffff" stroke="transparent" points="-4,4 -4,-207 590,-207 590,4 -4,4"/>
<text text-anchor="start" x="272.0091" y="-42.4" font-family="sans-serif" font-weight="bold" font-size="14.00" fill="#000000">Legend</text>
<polygon fill="#ffffb3" stroke="transparent" points="59,-10 59,-30 79,-30 79,-10 59,-10"/>
<text text-anchor="start" x="82.629" y="-15.4" font-family="sans-serif" font-size="14.00" fill="#000000"> &#160;Declarations</text>
<polygon fill="#8dd3c7" stroke="transparent" points="172,-10 172,-30 192,-30 192,-10 172,-10"/>
<text text-anchor="start" x="195.7251" y="-15.4" font-family="sans-serif" font-size="14.00" fill="#000000"> &#160;Module</text>
<polygon fill="#80b1d3" stroke="transparent" points="258,-10 258,-30 278,-30 278,-10 258,-10"/>
<text text-anchor="start" x="281.7812" y="-15.4" font-family="sans-serif" font-size="14.00" fill="#000000"> &#160;Bootstrap</text>
<polygon fill="#fdb462" stroke="transparent" points="355,-10 355,-30 375,-30 375,-10 355,-10"/>
<text text-anchor="start" x="378.6732" y="-15.4" font-family="sans-serif" font-size="14.00" fill="#000000"> &#160;Providers</text>
<polygon fill="#fb8072" stroke="transparent" points="451,-10 451,-30 471,-30 471,-10 451,-10"/>
<text text-anchor="start" x="474.7258" y="-15.4" font-family="sans-serif" font-size="14.00" fill="#000000"> &#160;Exports</text>
<g id="clust1" class="cluster">
<title>cluster_PostsPageModule</title>
<polygon fill="none" stroke="#000000" stroke-dasharray="1,5" points="8,-70 8,-195 578,-195 578,-70 8,-70"/>
</g>
<g id="clust3" class="cluster">
<title>cluster_PostsPageModule_imports</title>
<polygon fill="none" stroke="#000000" points="16,-78 16,-130 570,-130 570,-78 16,-78"/>
</g>
<!-- CommonModule -->
<g id="node1" class="node">
<title>CommonModule</title>
<polygon fill="#8dd3c7" stroke="#000000" points="561.6681,-122 558.6681,-126 537.6681,-126 534.6681,-122 450.3319,-122 450.3319,-86 561.6681,-86 561.6681,-122"/>
<text text-anchor="middle" x="506" y="-99.8" font-family="Times,serif" font-size="14.00" fill="#000000">CommonModule</text>
</g>
<!-- PostsPageModule -->
<g id="node5" class="node">
<title>PostsPageModule</title>
<polygon fill="#8dd3c7" stroke="#000000" points="384.3245,-187 381.3245,-191 360.3245,-191 357.3245,-187 267.6755,-187 267.6755,-151 384.3245,-151 384.3245,-187"/>
<text text-anchor="middle" x="326" y="-164.8" font-family="Times,serif" font-size="14.00" fill="#000000">PostsPageModule</text>
</g>
<!-- CommonModule&#45;&gt;PostsPageModule -->
<g id="edge1" class="edge">
<title>CommonModule&#45;&gt;PostsPageModule</title>
<path fill="none" stroke="#000000" d="M506,-122.1061C506,-141.3391 506,-169 506,-169 506,-169 394.4408,-169 394.4408,-169"/>
<polygon fill="#000000" stroke="#000000" points="394.4409,-165.5001 384.4408,-169 394.4408,-172.5001 394.4409,-165.5001"/>
</g>
<!-- HttpModule -->
<g id="node2" class="node">
<title>HttpModule</title>
<polygon fill="#8dd3c7" stroke="#000000" points="432.4387,-122 429.4387,-126 408.4387,-126 405.4387,-122 347.5613,-122 347.5613,-86 432.4387,-86 432.4387,-122"/>
<text text-anchor="middle" x="390" y="-99.8" font-family="Times,serif" font-size="14.00" fill="#000000">HttpModule</text>
</g>
<!-- HttpModule&#45;&gt;PostsPageModule -->
<g id="edge2" class="edge">
<title>HttpModule&#45;&gt;PostsPageModule</title>
<path fill="none" stroke="#000000" d="M365.9716,-122.1061C365.9716,-122.1061 365.9716,-140.991 365.9716,-140.991"/>
<polygon fill="#000000" stroke="#000000" points="362.4717,-140.9909 365.9716,-150.991 369.4717,-140.991 362.4717,-140.9909"/>
</g>
<!-- PostsRoutingModule -->
<g id="node3" class="node">
<title>PostsRoutingModule</title>
<polygon fill="#8dd3c7" stroke="#000000" points="330.2302,-122 327.2302,-126 306.2302,-126 303.2302,-122 195.7698,-122 195.7698,-86 330.2302,-86 330.2302,-122"/>
<text text-anchor="middle" x="263" y="-99.8" font-family="Times,serif" font-size="14.00" fill="#000000">PostsRoutingModule</text>
</g>
<!-- PostsRoutingModule&#45;&gt;PostsPageModule -->
<g id="edge3" class="edge">
<title>PostsRoutingModule&#45;&gt;PostsPageModule</title>
<path fill="none" stroke="#000000" d="M298.9765,-122.1061C298.9765,-122.1061 298.9765,-140.991 298.9765,-140.991"/>
<polygon fill="#000000" stroke="#000000" points="295.4766,-140.9909 298.9765,-150.991 302.4766,-140.991 295.4766,-140.9909"/>
</g>
<!-- EffectsModule.run(args) -->
<g id="node4" class="node">
<title>EffectsModule.run(args)</title>
<polygon fill="#8dd3c7" stroke="#000000" points="177.9896,-122 174.9896,-126 153.9896,-126 150.9896,-122 24.0104,-122 24.0104,-86 177.9896,-86 177.9896,-122"/>
<text text-anchor="middle" x="101" y="-99.8" font-family="Times,serif" font-size="14.00" fill="#000000">EffectsModule.run(args)</text>
</g>
<!-- EffectsModule.run(args)&#45;&gt;PostsPageModule -->
<g id="edge4" class="edge">
<title>EffectsModule.run(args)&#45;&gt;PostsPageModule</title>
<path fill="none" stroke="#000000" d="M101,-122.1061C101,-141.3391 101,-169 101,-169 101,-169 257.7643,-169 257.7643,-169"/>
<polygon fill="#000000" stroke="#000000" points="257.7643,-172.5001 267.7643,-169 257.7643,-165.5001 257.7643,-172.5001"/>
</g>
</g>
</svg>
