<?xml version="1.0" encoding="UTF-8" standalone="no"?>
<!DOCTYPE svg PUBLIC "-//W3C//DTD SVG 1.1//EN"
 "http://www.w3.org/Graphics/SVG/1.1/DTD/svg11.dtd">
<!-- Generated by graphviz version 2.40.1 (20161225.0304)
 -->
<!-- Title: dependencies Pages: 1 -->
<svg width="504pt" height="211pt"
 viewBox="0.00 0.00 504.00 211.00" xmlns="http://www.w3.org/2000/svg" xmlns:xlink="http://www.w3.org/1999/xlink">
<g id="graph0" class="graph" transform="scale(1 1) rotate(0) translate(4 207)">
<title>dependencies</title>
<polygon fill="#ffffff" stroke="transparent" points="-4,4 -4,-207 500,-207 500,4 -4,4"/>
<text text-anchor="start" x="227.0091" y="-42.4" font-family="sans-serif" font-weight="bold" font-size="14.00" fill="#000000">Legend</text>
<polygon fill="#ffffb3" stroke="transparent" points="14,-10 14,-30 34,-30 34,-10 14,-10"/>
<text text-anchor="start" x="37.629" y="-15.4" font-family="sans-serif" font-size="14.00" fill="#000000"> &#160;Declarations</text>
<polygon fill="#8dd3c7" stroke="transparent" points="127,-10 127,-30 147,-30 147,-10 127,-10"/>
<text text-anchor="start" x="150.7251" y="-15.4" font-family="sans-serif" font-size="14.00" fill="#000000"> &#160;Module</text>
<polygon fill="#80b1d3" stroke="transparent" points="213,-10 213,-30 233,-30 233,-10 213,-10"/>
<text text-anchor="start" x="236.7812" y="-15.4" font-family="sans-serif" font-size="14.00" fill="#000000"> &#160;Bootstrap</text>
<polygon fill="#fdb462" stroke="transparent" points="310,-10 310,-30 330,-30 330,-10 310,-10"/>
<text text-anchor="start" x="333.6732" y="-15.4" font-family="sans-serif" font-size="14.00" fill="#000000"> &#160;Providers</text>
<polygon fill="#fb8072" stroke="transparent" points="406,-10 406,-30 426,-30 426,-10 406,-10"/>
<text text-anchor="start" x="429.7258" y="-15.4" font-family="sans-serif" font-size="14.00" fill="#000000"> &#160;Exports</text>
<g id="clust1" class="cluster">
<title>cluster_HomeModule</title>
<polygon fill="none" stroke="#000000" stroke-dasharray="1,5" points="16.5,-70 16.5,-195 479.5,-195 479.5,-70 16.5,-70"/>
</g>
<g id="clust3" class="cluster">
<title>cluster_HomeModule_imports</title>
<polygon fill="none" stroke="#000000" points="24.5,-78 24.5,-130 471.5,-130 471.5,-78 24.5,-78"/>
</g>
<!-- CommonModule -->
<g id="node1" class="node">
<title>CommonModule</title>
<polygon fill="#8dd3c7" stroke="#000000" points="463.1681,-122 460.1681,-126 439.1681,-126 436.1681,-122 351.8319,-122 351.8319,-86 463.1681,-86 463.1681,-122"/>
<text text-anchor="middle" x="407.5" y="-99.8" font-family="Times,serif" font-size="14.00" fill="#000000">CommonModule</text>
</g>
<!-- HomeModule -->
<g id="node4" class="node">
<title>HomeModule</title>
<polygon fill="#8dd3c7" stroke="#000000" points="308.2619,-187 305.2619,-191 284.2619,-191 281.2619,-187 214.7381,-187 214.7381,-151 308.2619,-151 308.2619,-187"/>
<text text-anchor="middle" x="261.5" y="-164.8" font-family="Times,serif" font-size="14.00" fill="#000000">HomeModule</text>
</g>
<!-- CommonModule&#45;&gt;HomeModule -->
<g id="edge1" class="edge">
<title>CommonModule&#45;&gt;HomeModule</title>
<path fill="none" stroke="#000000" d="M407.5,-122.1061C407.5,-141.3391 407.5,-169 407.5,-169 407.5,-169 318.499,-169 318.499,-169"/>
<polygon fill="#000000" stroke="#000000" points="318.499,-165.5001 308.499,-169 318.4989,-172.5001 318.499,-165.5001"/>
</g>
<!-- ReactiveFormsModule -->
<g id="node2" class="node">
<title>ReactiveFormsModule</title>
<polygon fill="#8dd3c7" stroke="#000000" points="333.8047,-122 330.8047,-126 309.8047,-126 306.8047,-122 189.1953,-122 189.1953,-86 333.8047,-86 333.8047,-122"/>
<text text-anchor="middle" x="261.5" y="-99.8" font-family="Times,serif" font-size="14.00" fill="#000000">ReactiveFormsModule</text>
</g>
<!-- ReactiveFormsModule&#45;&gt;HomeModule -->
<g id="edge2" class="edge">
<title>ReactiveFormsModule&#45;&gt;HomeModule</title>
<path fill="none" stroke="#000000" d="M261.5,-122.1061C261.5,-122.1061 261.5,-140.991 261.5,-140.991"/>
<polygon fill="#000000" stroke="#000000" points="258.0001,-140.9909 261.5,-150.991 265.0001,-140.991 258.0001,-140.9909"/>
</g>
<!-- HomeRoutingModule -->
<g id="node3" class="node">
<title>HomeRoutingModule</title>
<polygon fill="#8dd3c7" stroke="#000000" points="170.8795,-122 167.8795,-126 146.8795,-126 143.8795,-122 32.1205,-122 32.1205,-86 170.8795,-86 170.8795,-122"/>
<text text-anchor="middle" x="101.5" y="-99.8" font-family="Times,serif" font-size="14.00" fill="#000000">HomeRoutingModule</text>
</g>
<!-- HomeRoutingModule&#45;&gt;HomeModule -->
<g id="edge3" class="edge">
<title>HomeRoutingModule&#45;&gt;HomeModule</title>
<path fill="none" stroke="#000000" d="M101.5,-122.1061C101.5,-141.3391 101.5,-169 101.5,-169 101.5,-169 204.3601,-169 204.3601,-169"/>
<polygon fill="#000000" stroke="#000000" points="204.3601,-172.5001 214.3601,-169 204.3601,-165.5001 204.3601,-172.5001"/>
</g>
</g>
</svg>
