<?xml version="1.0" encoding="UTF-8" standalone="no"?>
<!DOCTYPE svg PUBLIC "-//W3C//DTD SVG 1.1//EN"
 "http://www.w3.org/Graphics/SVG/1.1/DTD/svg11.dtd">
<!-- Generated by graphviz version 2.40.1 (20161225.0304)
 -->
<!-- Title: dependencies Pages: 1 -->
<svg width="1132pt" height="284pt"
 viewBox="0.00 0.00 1132.00 284.00" xmlns="http://www.w3.org/2000/svg" xmlns:xlink="http://www.w3.org/1999/xlink">
<g id="graph0" class="graph" transform="scale(1 1) rotate(0) translate(4 280)">
<title>dependencies</title>
<polygon fill="#ffffff" stroke="transparent" points="-4,4 -4,-280 1128,-280 1128,4 -4,4"/>
<text text-anchor="start" x="541.0091" y="-42.4" font-family="sans-serif" font-weight="bold" font-size="14.00" fill="#000000">Legend</text>
<polygon fill="#ffffb3" stroke="transparent" points="328,-10 328,-30 348,-30 348,-10 328,-10"/>
<text text-anchor="start" x="351.629" y="-15.4" font-family="sans-serif" font-size="14.00" fill="#000000"> &#160;Declarations</text>
<polygon fill="#8dd3c7" stroke="transparent" points="441,-10 441,-30 461,-30 461,-10 441,-10"/>
<text text-anchor="start" x="464.7251" y="-15.4" font-family="sans-serif" font-size="14.00" fill="#000000"> &#160;Module</text>
<polygon fill="#80b1d3" stroke="transparent" points="527,-10 527,-30 547,-30 547,-10 527,-10"/>
<text text-anchor="start" x="550.7812" y="-15.4" font-family="sans-serif" font-size="14.00" fill="#000000"> &#160;Bootstrap</text>
<polygon fill="#fdb462" stroke="transparent" points="624,-10 624,-30 644,-30 644,-10 624,-10"/>
<text text-anchor="start" x="647.6732" y="-15.4" font-family="sans-serif" font-size="14.00" fill="#000000"> &#160;Providers</text>
<polygon fill="#fb8072" stroke="transparent" points="720,-10 720,-30 740,-30 740,-10 720,-10"/>
<text text-anchor="start" x="743.7258" y="-15.4" font-family="sans-serif" font-size="14.00" fill="#000000"> &#160;Exports</text>
<g id="clust1" class="cluster">
<title>cluster_AppModule</title>
<polygon fill="none" stroke="#000000" stroke-dasharray="1,5" points="8,-70 8,-268 1116,-268 1116,-70 8,-70"/>
</g>
<g id="clust3" class="cluster">
<title>cluster_AppModule_imports</title>
<polygon fill="none" stroke="#000000" points="16,-78 16,-130 1108,-130 1108,-78 16,-78"/>
</g>
<g id="clust5" class="cluster">
<title>cluster_AppModule_bootstrap</title>
<polygon fill="none" stroke="#000000" points="646,-208 646,-260 770,-260 770,-208 646,-208"/>
</g>
<!-- BrowserModule -->
<g id="node1" class="node">
<title>BrowserModule</title>
<polygon fill="#8dd3c7" stroke="#000000" points="1100.4734,-122 1097.4734,-126 1076.4734,-126 1073.4734,-122 993.5266,-122 993.5266,-86 1100.4734,-86 1100.4734,-122"/>
<text text-anchor="middle" x="1047" y="-99.8" font-family="Times,serif" font-size="14.00" fill="#000000">BrowserModule</text>
</g>
<!-- AppModule -->
<g id="node7" class="node">
<title>AppModule</title>
<polygon fill="#8dd3c7" stroke="#000000" points="749.6571,-187 746.6571,-191 725.6571,-191 722.6571,-187 666.3429,-187 666.3429,-151 749.6571,-151 749.6571,-187"/>
<text text-anchor="middle" x="708" y="-164.8" font-family="Times,serif" font-size="14.00" fill="#000000">AppModule</text>
</g>
<!-- BrowserModule&#45;&gt;AppModule -->
<g id="edge1" class="edge">
<title>BrowserModule&#45;&gt;AppModule</title>
<path fill="none" stroke="#000000" d="M1047,-122.2843C1047,-143.3211 1047,-175 1047,-175 1047,-175 759.9081,-175 759.9081,-175"/>
<polygon fill="#000000" stroke="#000000" points="759.9081,-171.5001 749.9081,-175 759.908,-178.5001 759.9081,-171.5001"/>
</g>
<!-- ReactiveFormsModule -->
<g id="node2" class="node">
<title>ReactiveFormsModule</title>
<polygon fill="#8dd3c7" stroke="#000000" points="975.3047,-122 972.3047,-126 951.3047,-126 948.3047,-122 830.6953,-122 830.6953,-86 975.3047,-86 975.3047,-122"/>
<text text-anchor="middle" x="903" y="-99.8" font-family="Times,serif" font-size="14.00" fill="#000000">ReactiveFormsModule</text>
</g>
<!-- ReactiveFormsModule&#45;&gt;AppModule -->
<g id="edge2" class="edge">
<title>ReactiveFormsModule&#45;&gt;AppModule</title>
<path fill="none" stroke="#000000" d="M903,-122.0225C903,-139.3734 903,-163 903,-163 903,-163 759.8324,-163 759.8324,-163"/>
<polygon fill="#000000" stroke="#000000" points="759.8324,-159.5001 749.8324,-163 759.8324,-166.5001 759.8324,-159.5001"/>
</g>
<!-- HttpModule -->
<g id="node3" class="node">
<title>HttpModule</title>
<polygon fill="#8dd3c7" stroke="#000000" points="813.4387,-122 810.4387,-126 789.4387,-126 786.4387,-122 728.5613,-122 728.5613,-86 813.4387,-86 813.4387,-122"/>
<text text-anchor="middle" x="771" y="-99.8" font-family="Times,serif" font-size="14.00" fill="#000000">HttpModule</text>
</g>
<!-- HttpModule&#45;&gt;AppModule -->
<g id="edge3" class="edge">
<title>HttpModule&#45;&gt;AppModule</title>
<path fill="none" stroke="#000000" d="M739.3047,-122.1061C739.3047,-122.1061 739.3047,-140.991 739.3047,-140.991"/>
<polygon fill="#000000" stroke="#000000" points="735.8048,-140.9909 739.3047,-150.991 742.8048,-140.991 735.8048,-140.9909"/>
</g>
<!-- AppRoutingModule -->
<g id="node4" class="node">
<title>AppRoutingModule</title>
<polygon fill="#8dd3c7" stroke="#000000" points="710.2744,-122 707.2744,-126 686.2744,-126 683.2744,-122 581.7256,-122 581.7256,-86 710.2744,-86 710.2744,-122"/>
<text text-anchor="middle" x="646" y="-99.8" font-family="Times,serif" font-size="14.00" fill="#000000">AppRoutingModule</text>
</g>
<!-- AppRoutingModule&#45;&gt;AppModule -->
<g id="edge4" class="edge">
<title>AppRoutingModule&#45;&gt;AppModule</title>
<path fill="none" stroke="#000000" d="M688.2795,-122.1061C688.2795,-122.1061 688.2795,-140.991 688.2795,-140.991"/>
<polygon fill="#000000" stroke="#000000" points="684.7795,-140.9909 688.2795,-150.991 691.7795,-140.991 684.7795,-140.9909"/>
</g>
<!-- StoreModule.provideStore(args) -->
<g id="node5" class="node">
<title>StoreModule.provideStore(args)</title>
<polygon fill="#8dd3c7" stroke="#000000" points="563.5539,-122 560.5539,-126 539.5539,-126 536.5539,-122 366.4461,-122 366.4461,-86 563.5539,-86 563.5539,-122"/>
<text text-anchor="middle" x="465" y="-99.8" font-family="Times,serif" font-size="14.00" fill="#000000">StoreModule.provideStore(args)</text>
</g>
<!-- StoreModule.provideStore(args)&#45;&gt;AppModule -->
<g id="edge5" class="edge">
<title>StoreModule.provideStore(args)&#45;&gt;AppModule</title>
<path fill="none" stroke="#000000" d="M465,-122.0225C465,-139.3734 465,-163 465,-163 465,-163 656.2268,-163 656.2268,-163"/>
<polygon fill="#000000" stroke="#000000" points="656.2268,-166.5001 666.2268,-163 656.2268,-159.5001 656.2268,-166.5001"/>
</g>
<!-- StoreDevtoolsModule.instrumentOnlyWithExtension() -->
<g id="node6" class="node">
<title>StoreDevtoolsModule.instrumentOnlyWithExtension()</title>
<polygon fill="#8dd3c7" stroke="#000000" points="348.3348,-122 345.3348,-126 324.3348,-126 321.3348,-122 23.6652,-122 23.6652,-86 348.3348,-86 348.3348,-122"/>
<text text-anchor="middle" x="186" y="-99.8" font-family="Times,serif" font-size="14.00" fill="#000000">StoreDevtoolsModule.instrumentOnlyWithExtension()</text>
</g>
<!-- StoreDevtoolsModule.instrumentOnlyWithExtension()&#45;&gt;AppModule -->
<g id="edge6" class="edge">
<title>StoreDevtoolsModule.instrumentOnlyWithExtension()&#45;&gt;AppModule</title>
<path fill="none" stroke="#000000" d="M186,-122.2843C186,-143.3211 186,-175 186,-175 186,-175 656.1649,-175 656.1649,-175"/>
<polygon fill="#000000" stroke="#000000" points="656.165,-178.5001 666.1649,-175 656.1649,-171.5001 656.165,-178.5001"/>
</g>
<!-- AppComponent  -->
<g id="node8" class="node">
<title>AppComponent </title>
<polygon fill="#80b1d3" stroke="#000000" points="762.439,-252 653.561,-252 653.561,-216 762.439,-216 762.439,-252"/>
<text text-anchor="middle" x="708" y="-229.8" font-family="Times,serif" font-size="14.00" fill="#000000">AppComponent </text>
</g>
<!-- AppModule&#45;&gt;AppComponent  -->
<g id="edge7" class="edge">
<title>AppModule&#45;&gt;AppComponent </title>
<path fill="none" stroke="#000000" stroke-dasharray="1,5" d="M708,-187.1061C708,-187.1061 708,-205.991 708,-205.991"/>
<polygon fill="#000000" stroke="#000000" points="704.5001,-205.9909 708,-215.991 711.5001,-205.991 704.5001,-205.9909"/>
</g>
</g>
</svg>
